<svg width="192" height="48" viewBox="0 0 192 48" fill="none" xmlns="http://www.w3.org/2000/svg" role="img" aria-labelledby="launchbase-logo-title">
  <title id="launchbase-logo-title">LaunchBase</title>
  <rect x="1" y="1" width="46" height="46" rx="10" fill="currentColor" fill-opacity="0.04" stroke="currentColor" stroke-opacity="0.18" stroke-width="2"/>
  <path d="M14 32.5H34" stroke="currentColor" stroke-width="3" stroke-linecap="round"/>
  <path d="M17 27.5H31" stroke="currentColor" stroke-opacity="0.65" stroke-width="3" stroke-linecap="round"/>
  <path d="M20 22.5H28" stroke="currentColor" stroke-opacity="0.4" stroke-width="3" stroke-linecap="round"/>
  <path d="M24 8L32 20H16L24 8Z" fill="currentColor"/>
  <path d="M24 8L28.5 20H16L24 8Z" fill="#5EEAD4"/>
  <path d="M24 20V34" stroke="currentColor" stroke-width="3" stroke-linecap="round"/>
  <path d="M24 35L19.5 40H28.5L24 35Z" fill="#60A5FA"/>
  <path d="M64 33V15H68.04V29.48H76.52V33H64Z" fill="currentColor"/>
  <path d="M86.175 33.28C82.055 33.28 79.095 30.36 79.095 26.24C79.095 22.12 82.055 19.2 86.175 19.2C90.295 19.2 93.255 22.12 93.255 26.24C93.255 30.36 90.295 33.28 86.175 33.28ZM86.175 29.96C88.015 29.96 89.295 28.48 89.295 26.24C89.295 24 88.015 22.52 86.175 22.52C84.335 22.52 83.055 24 83.055 26.24C83.055 28.48 84.335 29.96 86.175 29.96Z" fill="currentColor"/>
  <path d="M101.757 33.28C98.597 33.28 96.517 31.56 96.517 28.8V19.48H100.397V28.08C100.397 29.32 101.117 30 102.317 30C103.797 30 104.837 29.08 104.837 27.16V19.48H108.717V33H105.037V31.28C104.277 32.48 103.117 33.28 101.757 33.28Z" fill="currentColor"/>
  <path d="M112.851 33V19.48H116.531V21.2C117.291 20 118.451 19.2 119.931 19.2C123.011 19.2 125.091 21.12 125.091 24.4V33H121.211V25.04C121.211 23.4 120.371 22.52 118.971 22.52C117.611 22.52 116.731 23.4 116.731 25.08V33H112.851Z" fill="currentColor"/>
  <path d="M135.024 33.28C130.864 33.28 128.024 30.36 128.024 26.24C128.024 22.12 130.864 19.2 135.024 19.2C138.424 19.2 140.984 21.16 141.504 24.24H137.664C137.304 23.16 136.384 22.52 135.064 22.52C133.224 22.52 131.984 24 131.984 26.24C131.984 28.48 133.224 29.96 135.064 29.96C136.424 29.96 137.384 29.28 137.744 28.08H141.584C141.064 31.24 138.504 33.28 135.024 33.28Z" fill="currentColor"/>
  <path d="M144.822 33V14.2H148.702V21.12C149.462 19.92 150.622 19.2 152.102 19.2C155.182 19.2 157.262 21.12 157.262 24.4V33H153.382V25.04C153.382 23.4 152.542 22.52 151.142 22.52C149.782 22.52 148.702 23.4 148.702 25.08V33H144.822Z" fill="currentColor"/>
  <path d="M161.485 33V15H169.525C173.005 15 175.125 16.76 175.125 19.64C175.125 21.36 174.245 22.72 172.725 23.32C174.645 23.88 175.845 25.44 175.845 27.56C175.845 30.92 173.405 33 169.605 33H161.485ZM165.405 22.04H168.965C170.445 22.04 171.205 21.36 171.205 20.24C171.205 19.12 170.445 18.44 168.965 18.44H165.405V22.04ZM165.405 29.56H169.285C170.925 29.56 171.845 28.8 171.845 27.48C171.845 26.16 170.925 25.4 169.285 25.4H165.405V29.56Z" fill="currentColor"/>
  <path d="M181.215 33V19.48H184.895V21.72C185.535 20.2 186.735 19.36 188.415 19.36H189.175V23.04H187.855C185.975 23.04 185.095 24 185.095 26.12V33H181.215Z" fill="currentColor"/>
</svg>
