<svg width="1660" height="457" viewBox="0 0 1660 457" fill="none" xmlns="http://www.w3.org/2000/svg" role="img" aria-labelledby="launchbase-github-title launchbase-github-desc">
  <title id="launchbase-github-title">LaunchBase</title>
  <desc id="launchbase-github-desc">LaunchBase production-ready monorepo starter banner</desc>
  <rect width="1660" height="457" fill="#F7F8FA"/>
  <rect x="1" y="1" width="1658" height="455" rx="28" stroke="#0A0A0B" stroke-opacity="0.08" stroke-width="2"/>
  <path d="M0 320H1660" stroke="#0A0A0B" stroke-opacity="0.06"/>
  <path d="M0 136H1660" stroke="#0A0A0B" stroke-opacity="0.04"/>
  <path d="M180 0V457" stroke="#0A0A0B" stroke-opacity="0.04"/>
  <path d="M1480 0V457" stroke="#0A0A0B" stroke-opacity="0.04"/>

  <g transform="translate(184 92)">
    <rect width="272" height="272" rx="58" fill="#09090B"/>
    <rect x="2.5" y="2.5" width="267" height="267" rx="55.5" stroke="white" stroke-opacity="0.16" stroke-width="5"/>
    <path d="M74 184H198" stroke="white" stroke-width="16" stroke-linecap="round"/>
    <path d="M92 151H180" stroke="white" stroke-opacity="0.65" stroke-width="16" stroke-linecap="round"/>
    <path d="M112 118H160" stroke="white" stroke-opacity="0.38" stroke-width="16" stroke-linecap="round"/>
    <path d="M136 38L188 116H84L136 38Z" fill="white"/>
    <path d="M136 38L164 116H84L136 38Z" fill="#5EEAD4"/>
    <path d="M136 116V196" stroke="white" stroke-width="16" stroke-linecap="round"/>
    <path d="M136 202L108 234H164L136 202Z" fill="#60A5FA"/>
  </g>

  <g transform="translate(536 117)">
    <text x="0" y="92" fill="#09090B" font-family="Geist, ui-sans-serif, system-ui, -apple-system, BlinkMacSystemFont, 'Segoe UI', sans-serif" font-size="96" font-weight="720" letter-spacing="0">LaunchBase</text>
    <text x="4" y="149" fill="#3F3F46" font-family="Geist, ui-sans-serif, system-ui, -apple-system, BlinkMacSystemFont, 'Segoe UI', sans-serif" font-size="34" font-weight="450" letter-spacing="0">Production-ready monorepo starter for modern TypeScript products</text>
    <g transform="translate(4 194)">
      <rect width="148" height="44" rx="10" fill="#09090B"/>
      <text x="24" y="29" fill="white" font-family="Geist, ui-sans-serif, system-ui, -apple-system, BlinkMacSystemFont, 'Segoe UI', sans-serif" font-size="18" font-weight="620" letter-spacing="0">Next.js 16</text>
      <rect x="164" width="128" height="44" rx="10" fill="#FFFFFF" stroke="#D4D4D8"/>
      <text x="188" y="29" fill="#18181B" font-family="Geist, ui-sans-serif, system-ui, -apple-system, BlinkMacSystemFont, 'Segoe UI', sans-serif" font-size="18" font-weight="620" letter-spacing="0">React 19</text>
      <rect x="308" width="122" height="44" rx="10" fill="#FFFFFF" stroke="#D4D4D8"/>
      <text x="332" y="29" fill="#18181B" font-family="Geist, ui-sans-serif, system-ui, -apple-system, BlinkMacSystemFont, 'Segoe UI', sans-serif" font-size="18" font-weight="620" letter-spacing="0">pnpm</text>
      <rect x="446" width="132" height="44" rx="10" fill="#FFFFFF" stroke="#D4D4D8"/>
      <text x="470" y="29" fill="#18181B" font-family="Geist, ui-sans-serif, system-ui, -apple-system, BlinkMacSystemFont, 'Segoe UI', sans-serif" font-size="18" font-weight="620" letter-spacing="0">Turborepo</text>
      <rect x="594" width="112" height="44" rx="10" fill="#FFFFFF" stroke="#D4D4D8"/>
      <text x="618" y="29" fill="#18181B" font-family="Geist, ui-sans-serif, system-ui, -apple-system, BlinkMacSystemFont, 'Segoe UI', sans-serif" font-size="18" font-weight="620" letter-spacing="0">Vercel</text>
    </g>
  </g>

  <g transform="translate(1268 120)">
    <rect width="210" height="218" rx="22" fill="#FFFFFF" fill-opacity="0.78" stroke="#D4D4D8"/>
    <path d="M38 58H172" stroke="#09090B" stroke-opacity="0.82" stroke-width="10" stroke-linecap="round"/>
    <path d="M38 96H132" stroke="#09090B" stroke-opacity="0.3" stroke-width="10" stroke-linecap="round"/>
    <path d="M38 134H156" stroke="#09090B" stroke-opacity="0.3" stroke-width="10" stroke-linecap="round"/>
    <path d="M38 172H116" stroke="#09090B" stroke-opacity="0.3" stroke-width="10" stroke-linecap="round"/>
    <circle cx="164" cy="166" r="18" fill="#5EEAD4"/>
    <path d="M157 166L162 171L172 159" stroke="#09090B" stroke-width="4" stroke-linecap="round" stroke-linejoin="round"/>
  </g>
</svg>
