<svg width="1660" height="520" viewBox="0 0 1660 520" fill="none" xmlns="http://www.w3.org/2000/svg" role="img" aria-labelledby="launchbase-github-title launchbase-github-desc">
  <title id="launchbase-github-title">LaunchBase</title>
  <desc id="launchbase-github-desc">LaunchBase production-grade TypeScript monorepo starter banner</desc>
  <rect width="1660" height="520" rx="30" fill="#FFFFFF"/>
  <rect x="1" y="1" width="1658" height="518" rx="29" stroke="#0D0D0D" stroke-opacity="0.08" stroke-width="2"/>
  <path d="M0 104H1660M0 416H1660" stroke="#0D0D0D" stroke-opacity="0.05"/>
  <path d="M104 0V520M1556 0V520" stroke="#0D0D0D" stroke-opacity="0.05"/>
  <g opacity="0.5">
    <path d="M240 0V520M448 0V520M656 0V520M864 0V520M1072 0V520M1280 0V520" stroke="#0D0D0D" stroke-opacity="0.035"/>
    <path d="M0 208H1660M0 312H1660" stroke="#0D0D0D" stroke-opacity="0.035"/>
  </g>

  <g transform="translate(140 120)">
    <rect width="72" height="72" rx="18" fill="#0D0D0D"/>
    <rect x="1" y="1" width="70" height="70" rx="17" stroke="white" stroke-opacity="0.16" stroke-width="2"/>
    <path d="M22 50H50" stroke="white" stroke-width="4" stroke-linecap="round"/>
    <path d="M22 36H50" stroke="white" stroke-opacity="0.32" stroke-width="2" stroke-linecap="round"/>
    <path d="M36 22V50" stroke="white" stroke-opacity="0.32" stroke-width="2" stroke-linecap="round"/>
    <rect x="23" y="23" width="11" height="11" rx="3" fill="white"/>
    <rect x="38" y="23" width="11" height="11" rx="3" fill="white" fill-opacity="0.38"/>
    <rect x="23" y="38" width="11" height="11" rx="3" fill="white" fill-opacity="0.38"/>
    <rect x="38" y="38" width="11" height="11" rx="3" fill="white"/>
    <text x="0" y="142" fill="#0D0D0D" font-family="Geist, Inter, ui-sans-serif, system-ui, -apple-system, BlinkMacSystemFont, 'Segoe UI', sans-serif" font-size="78" font-weight="660" letter-spacing="0">LaunchBase</text>
    <text x="2" y="196" fill="#666666" font-family="Geist, Inter, ui-sans-serif, system-ui, -apple-system, BlinkMacSystemFont, 'Segoe UI', sans-serif" font-size="30" font-weight="430" letter-spacing="0">Production-grade TypeScript monorepo starter</text>
    <g transform="translate(2 236)">
      <rect width="116" height="38" rx="19" fill="#0D0D0D"/>
      <text x="22" y="25" fill="white" font-family="Geist, Inter, ui-sans-serif, system-ui, -apple-system, BlinkMacSystemFont, 'Segoe UI', sans-serif" font-size="15" font-weight="620" letter-spacing="0">Next.js</text>
      <rect x="128" width="122" height="38" rx="19" fill="#F6F6F6" stroke="#E5E5E5"/>
      <text x="150" y="25" fill="#171717" font-family="Geist, Inter, ui-sans-serif, system-ui, -apple-system, BlinkMacSystemFont, 'Segoe UI', sans-serif" font-size="15" font-weight="620" letter-spacing="0">Turborepo</text>
      <rect x="262" width="116" height="38" rx="19" fill="#F6F6F6" stroke="#E5E5E5"/>
      <text x="284" y="25" fill="#171717" font-family="Geist, Inter, ui-sans-serif, system-ui, -apple-system, BlinkMacSystemFont, 'Segoe UI', sans-serif" font-size="15" font-weight="620" letter-spacing="0">Postgres</text>
      <rect x="390" width="104" height="38" rx="19" fill="#F6F6F6" stroke="#E5E5E5"/>
      <text x="412" y="25" fill="#171717" font-family="Geist, Inter, ui-sans-serif, system-ui, -apple-system, BlinkMacSystemFont, 'Segoe UI', sans-serif" font-size="15" font-weight="620" letter-spacing="0">AI-ready</text>
    </g>
  </g>

  <g transform="translate(710 82)">
    <rect width="360" height="356" rx="18" fill="#F9F9F9" stroke="#E5E5E5"/>
    <text x="28" y="48" fill="#0D0D0D" font-family="Geist Mono, ui-monospace, SFMono-Regular, Menlo, monospace" font-size="17" font-weight="600">monorepo</text>
    <path d="M28 72H332" stroke="#E5E5E5"/>
    <g font-family="Geist Mono, ui-monospace, SFMono-Regular, Menlo, monospace" font-size="16" letter-spacing="0">
      <text x="28" y="112" fill="#666666">apps/</text>
      <text x="56" y="144" fill="#0D0D0D">web</text>
      <text x="56" y="176" fill="#0D0D0D">docs</text>
      <text x="28" y="224" fill="#666666">packages/</text>
      <text x="56" y="256" fill="#0D0D0D">ui</text>
      <text x="56" y="288" fill="#0D0D0D">db</text>
      <text x="56" y="320" fill="#0D0D0D">auth</text>
    </g>
    <path d="M42 124V178M42 236V322" stroke="#E5E5E5" stroke-width="2"/>
  </g>

  <g transform="translate(1100 82)">
    <rect width="420" height="170" rx="18" fill="#0D0D0D"/>
    <rect x="1" y="1" width="418" height="168" rx="17" stroke="white" stroke-opacity="0.12" stroke-width="2"/>
    <g transform="translate(24 24)" font-family="Geist Mono, ui-monospace, SFMono-Regular, Menlo, monospace" font-size="16" letter-spacing="0">
      <text x="0" y="18" fill="white" fill-opacity="0.42">$</text>
      <text x="20" y="18" fill="white">pnpm build</text>
      <text x="0" y="56" fill="white" fill-opacity="0.62">lint cache hit</text>
      <text x="0" y="90" fill="white" fill-opacity="0.82">typecheck passed</text>
      <text x="0" y="124" fill="white" fill-opacity="0.82">web, docs, packages ready</text>
    </g>
  </g>

  <g transform="translate(1100 276)">
    <rect width="420" height="162" rx="18" fill="#FFFFFF" stroke="#E5E5E5"/>
    <text x="24" y="42" fill="#0D0D0D" font-family="Geist, Inter, ui-sans-serif, system-ui, -apple-system, BlinkMacSystemFont, 'Segoe UI', sans-serif" font-size="18" font-weight="620">deploy flow</text>
    <g transform="translate(24 72)" font-family="Geist Mono, ui-monospace, SFMono-Regular, Menlo, monospace" font-size="14">
      <rect width="92" height="38" rx="10" fill="#F6F6F6" stroke="#E5E5E5"/>
      <text x="18" y="24" fill="#0D0D0D">install</text>
      <path d="M104 19H136" stroke="#D4D4D4" stroke-width="2" stroke-linecap="round"/>
      <rect x="148" width="82" height="38" rx="10" fill="#F6F6F6" stroke="#E5E5E5"/>
      <text x="169" y="24" fill="#0D0D0D">lint</text>
      <path d="M242 19H274" stroke="#D4D4D4" stroke-width="2" stroke-linecap="round"/>
      <rect x="286" width="86" height="38" rx="10" fill="#0D0D0D"/>
      <text x="308" y="24" fill="white">ship</text>
    </g>
    <text x="24" y="138" fill="#666666" font-family="Geist, Inter, ui-sans-serif, system-ui, -apple-system, BlinkMacSystemFont, 'Segoe UI', sans-serif" font-size="15">AI-ready contracts, typed packages, production checks.</text>
  </g>
</svg>
